<?xml version="1.0" encoding="UTF-8"?>
<svg id="Layer_1" data-name="Layer 1" xmlns="http://www.w3.org/2000/svg" viewBox="0 0 2274.14 1197.96" fill="#FFB3BA">
  <g>
    <path d="M1299.47,501.74l-46.74-9.28-55.59,279.96,46.74,9.28c74.5,14.79,122.83-24.43,142.06-121.27,17.56-88.47-15.13-144.53-86.47-158.7Z"/>
    <path d="M0,0v1197.96h2082.72V0H0ZM990.92,707.27c-19.52,98.3-117.62,143.53-252.22,116.8-123-24.42-191.49-109.92-175.16-217.93l141.97,28.19c-5.88,35.16,16.56,61.94,60.13,70.59,39.36,7.81,70.2-9.53,76.92-43.38,6.79-34.22-14.11-59.56-56.28-67.94l-61.15-12.14,20.53-103.39,61.85,12.28c39.01,7.74,67.38-8.19,74.03-41.69,6.58-33.13-13.62-58.33-54.39-66.42-40.06-7.95-72.18,12.16-79.48,48.93l-134.24-26.65c21.24-105.14,117.63-158.28,242.38-133.52,119.83,23.79,184.61,94.93,166.97,183.76-12.58,63.35-66.31,100.36-129.7,99.5l-.58,2.91c72.84,23.17,112.65,78.37,98.41,150.09ZM1537.75,690.58c-33.39,168.2-143.58,248.49-297.15,218l-216.82-43.05,104.3-525.35,216.82,43.05c153.92,30.56,226.24,139.14,192.84,307.34Z"/>
  </g>
  <rect x="1665.95" y="0" width="608.19" height="1197.96"/>
</svg>