<?xml version="1.0" encoding="UTF-8"?>
<svg id="Layer_1" data-name="Layer 1" xmlns="http://www.w3.org/2000/svg" viewBox="0 0 2081.55 1197.96" fill="#FFF5F7">
  <path d="M1182.82,414.06h-43.03v300.38h43.03c68.59,0,104.5-50.39,104.5-154.29,0-94.92-38.82-146.09-104.5-146.09h0Z"/>
  <path d="M0,0v1197.96h2081.55V0H0ZM960.93,846.09h-370.77v-110.16l187.64-200.39c31.39-33.99,45.62-60.93,45.62-92.18s-20.38-54.29-55.65-54.29-60.82,28.91-60.82,69.92v3.52h-124.88v-3.13c0-115.23,75.06-192.57,190.56-192.57s182.8,69.14,182.8,171.48c0,77.35-53.71,135.93-78.62,162.5l-109.67,117.19v3.13h193.79v125h0ZM1202.23,846.09h-199.61V282.44h199.61c141.71,0,224.85,97.26,224.85,277.72s-83.47,285.93-224.85,285.93h0Z"/>
</svg>